<?xml version="1.0" encoding="UTF-8"?>
<svg width="328.34" height="317.71" version="1.1" viewBox="0 0 86.873 84.061" xmlns="http://www.w3.org/2000/svg" xmlns:cc="http://creativecommons.org/ns#" xmlns:dc="http://purl.org/dc/elements/1.1/" xmlns:rdf="http://www.w3.org/1999/02/22-rdf-syntax-ns#">
 <metadata>
  <rdf:RDF>
   <cc:Work rdf:about="">
    <dc:format>image/svg+xml</dc:format>
    <dc:type rdf:resource="http://purl.org/dc/dcmitype/StillImage"/>
    <dc:title/>
   </cc:Work>
  </rdf:RDF>
 </metadata>
 <g transform="translate(8.5718 -134.09)">
  <path d="m-8.5718 134.09v84.061h86.873v-84.061zm4.7408 24.085h13.23c10.064 0 16.093 5.422 16.093 14.358 0 8.9791-6.2461 14.965-15.616 14.965l-13.707-5.3e-4v-1.0842c2.4291 0 3.6003-0.95428 3.6003-2.8629v-21.385c-0.0434-2.0387-0.86751-2.6894-3.6003-2.9063zm26.841 0h28.424v1.0847c-3.1231 0.17351-3.7741 0.8239-3.8608 3.9904v9.2826l9.4129-9.4562c1.3446-1.3447 1.5617-1.6913 1.5617-2.3854 0-1.041-0.26029-1.1712-3.6871-1.4314v-1.0847h12.536v1.0847c-4.2076 0.34702-5.7693 1.4312-13.924 9.8464l13.23 16.396c0.56391 0.65065 1.041 0.86776 2.1255 0.91106v1.0842h-14.575v-1.0842c0.60726-0.0433 1.1711-0.0433 1.388-0.0434 1.4315-0.0867 2.0386-0.30375 2.0386-0.86765 0-0.47717-0.21659-0.86737-1.0408-1.9084l-7.8946-9.8464-1.1715 1.0842v8.5018c0.0434 2.1689 0.78091 2.7329 3.8173 3.0799v1.0847h-14.618v-1.0847c3.0364-0.26025 3.7304-0.82431 3.7739-3.0799v-20.995c-0.0395-2.0917-0.73103-2.8171-3.0432-3.0293-2.4876 0.21721-3.0061 1.0146-3.0851 3.9403v34.017c0 6.203-3.2099 9.4997-9.326 9.4997-1.7351 0-3.4264-0.39058-4.5542-0.99787-1.6917-0.99768-2.9062-2.9494-2.9063-4.7279 0-1.6483 1.431-3.1233 3.036-3.1233 1.6917 1e-5 3.1667 1.5184 3.1667 3.2536 0 0.69403-0.13006 1.0407-0.65061 1.6914-0.39031 0.47714-0.52038 0.6943-0.52038 1.0847 0 0.86754 0.73728 1.388 1.9518 1.388 1.9954 0 2.7761-1.0845 2.7761-3.7739v-39.222c-0.0867-2.3857-0.95434-3.036-4.3811-3.0794zm-13.655 1.4748c-1.6917 0-2.559 0.52056-2.559 1.5182v22.296c0 1.952 0.56364 2.5161 2.5156 2.5161 2.8195 0 4.902-0.99774 6.3769-2.9931 1.3881-1.952 2.2552-5.7261 2.2552-9.8035 0-3.687-0.60701-6.8534-1.7782-9.109-1.5182-2.993-3.6873-4.4245-6.8104-4.4245zm57.007 4.2674c0.5038 0.0854 2.5807 2.8515 2.9574 3.0138 0.38885 0.16747 4.0071-0.26844 4.2246 0.0987 0.21737 0.36709-1.8642 3.3971-1.9012 3.8235-0.0371 0.42648 1.4897 3.7781 1.2123 4.101-0.27737 0.32295-3.7647-0.74669-4.1765-0.6506-0.41176 0.0961-3.0859 2.6035-3.4747 2.436-0.38886-0.16749-0.46211-3.8585-0.67955-4.2256-0.21737-0.36708-3.3976-2.1692-3.3605-2.5957 0.0371-0.42647 3.479-1.6376 3.7564-1.9606 0.2774-0.32294 0.98609-3.944 1.3978-4.04 0.01291-3e-3 0.0277-3e-3 0.0439-5.3e-4z" style="paint-order:stroke markers fill"/>
 </g>
</svg>
