<?xml version="1.0" encoding="UTF-8" standalone="no"?>
<svg
   xmlns:dc="http://purl.org/dc/elements/1.1/"
   xmlns:cc="http://creativecommons.org/ns#"
   xmlns:rdf="http://www.w3.org/1999/02/22-rdf-syntax-ns#"
   xmlns:svg="http://www.w3.org/2000/svg"
   xmlns="http://www.w3.org/2000/svg"
   xmlns:sodipodi="http://sodipodi.sourceforge.net/DTD/sodipodi-0.dtd"
   xmlns:inkscape="http://www.inkscape.org/namespaces/inkscape"
   sodipodi:docname="double-star-black.svg"
   width="328.33792"
   height="317.71292"
   viewBox="0 0 86.872736 84.061545"
   version="1.1"
   id="svg8"
   inkscape:version="1.0 (1.0+r73+1)">
  <defs
     id="defs2" />
  <sodipodi:namedview
     inkscape:window-maximized="0"
     inkscape:window-y="31"
     inkscape:window-x="4"
     inkscape:window-height="1008"
     inkscape:window-width="1912"
     fit-margin-bottom="0"
     fit-margin-right="0"
     fit-margin-left="0"
     fit-margin-top="0"
     id="base"
     pagecolor="#ffffff"
     bordercolor="#666666"
     borderopacity="1.0"
     inkscape:pageopacity="0.0"
     inkscape:pageshadow="2"
     inkscape:zoom="0.35"
     inkscape:cx="-445.4249"
     inkscape:cy="384.65214"
     inkscape:document-units="mm"
     inkscape:current-layer="layer1"
     inkscape:document-rotation="0"
     showgrid="false"
     showborder="false"
     units="px" />
  <metadata
     id="metadata5">
    <rdf:RDF>
      <cc:Work
         rdf:about="">
        <dc:format>image/svg+xml</dc:format>
        <dc:type
           rdf:resource="http://purl.org/dc/dcmitype/StillImage" />
        <dc:title></dc:title>
      </cc:Work>
    </rdf:RDF>
  </metadata>
  <g
     transform="translate(-209.70022,-46.39412)"
     inkscape:label="Layer 1"
     inkscape:groupmode="layer"
     id="layer1">
    <path
       d="m 209.70022,46.39412 v 84.06154 h 86.87274 V 46.39412 Z m 40.98819,10.269141 c 2.44578,-0.01323 13.82824,14.977327 15.86571,15.843477 2.06981,0.879909 21.32762,-1.409636 22.48493,0.51883 1.15732,1.928458 -9.92256,17.844669 -10.11978,20.08508 -0.19725,2.24041 7.93133,19.848342 6.45488,21.544942 -1.47643,1.6966 -20.03793,-3.92263 -22.22963,-3.41788 -2.1917,0.50475 -16.4257,13.67653 -18.49551,12.79663 -2.06981,-0.87991 -2.46211,-20.26915 -3.61942,-22.19761 -1.15732,-1.928462 -18.08245,-11.395449 -17.88523,-13.635861 0.19725,-2.240412 18.51615,-8.605094 19.99258,-10.301695 1.47645,-1.696604 5.25023,-20.718767 7.44193,-21.223512 0.0342,-0.0079 0.0707,-0.0122 0.10954,-0.01241 z m -18.35803,0.45992 c 0.022,1.11e-4 0.0411,0.0035 0.0574,0.01035 0.5185,0.217471 0.64005,5.064688 0.93173,5.545397 0.29165,0.480713 4.53416,2.826538 4.48757,3.386875 -0.0466,0.560332 -4.6187,2.173912 -4.98576,2.599841 -0.36705,0.425932 -1.28719,5.186085 -1.83451,5.314921 -0.54729,0.128833 -3.49414,-3.721306 -4.01267,-3.938778 -0.51851,-0.217472 -5.33022,0.378391 -5.62187,-0.10232 -0.29165,-0.480711 2.45867,-4.473466 2.50526,-5.033801 0.0466,-0.560334 -2.00673,-4.952037 -1.63967,-5.377966 0.36705,-0.425929 5.01409,0.956175 5.56141,0.827339 0.53019,-0.124809 3.87143,-3.235282 4.55115,-3.231843 z"
       style="opacity:1;fill:#000000;stroke:none;stroke-width:3.90001;stroke-linecap:round;stroke-miterlimit:4;stroke-dasharray:none;paint-order:stroke markers fill"
       id="rect1159-4-1-1" />
  </g>
</svg>
