<?xml version="1.0" encoding="UTF-8"?>
<svg width="432.47" height="539.59" version="1.1" viewBox="0 0 114.43 142.77" xmlns="http://www.w3.org/2000/svg" xmlns:cc="http://creativecommons.org/ns#" xmlns:dc="http://purl.org/dc/elements/1.1/" xmlns:rdf="http://www.w3.org/1999/02/22-rdf-syntax-ns#">
 <metadata>
  <rdf:RDF>
   <cc:Work rdf:about="">
    <dc:format>image/svg+xml</dc:format>
    <dc:type rdf:resource="http://purl.org/dc/dcmitype/StillImage"/>
    <dc:title/>
   </cc:Work>
  </rdf:RDF>
 </metadata>
 <g transform="translate(-50.132 -82.831)">
  <path d="m117.48 82.833c-18.54-0.18597-41.17 8.7256-41.17 8.7256l6.5981 0.77359c-0.512 0.15465-0.8666 0.26562-0.8666 0.26562l17.76 3.081 34.185 14.525c-8.8648-8.795-15.562-10.3-26.991-13.277l16.014 2.7781 14.686 7.0104c-1.6472-2.1343-3.1547-3.8498-4.5728-5.2555l6.3872 1.1079c-0.5449-1.3964-1.2027-2.6696-1.9591-3.8292l3.5058 0.41083c-1.4868-12.34-11.691-16.197-23.576-16.316zm20.98 3.0122 5.7754 9.1292zm-71.384 4.0969c-1.9956 0.0488-3.7608 1.5814-3.9466 2.6004-0.6215 3.4099 8.5708 10.639 10.607 11.772-13.76 7.9138-15.293 36.525-15.293 36.525l15.433-36.451c0.1539 0.0757 0.2493 0.10229 0.2599 0.0615l31.835 8.8852c-22.072-8.897-31.855-14.009-34.456-19.875-1.1959-2.6966-2.887-3.5561-4.439-3.5181zm7.2615 1.7885s27.327 20.14 41.158 18.906zm72.236 1.2852 16.709 64.939c6.9431-59.657-16.709-64.939-16.709-64.939zm-58.011 2.714 39.008 18.417s-6.6731-8.3482-39.008-18.417zm31.054 17.502-9.9999 11.074c6.3054-1.7774 9.9999-11.074 9.9999-11.074zm-8.8609 12.766 16.468 29.134c4.433-22.515-16.468-29.134-16.468-29.134zm-35.005 14.702c-8.3262-0.0651-7.1765 2.6209-7.1035 4.2928l34.605-0.39067c-14.098-2.8334-22.506-3.863-27.501-3.9021zm-17.373 0.86765c-2.2907 2.4635 7.1892 10.146 7.1892 10.146zm93.445 2.6122c-8.8997-0.12353-6.7428 16.009-6.7428 16.009l11.273-14.867c-1.7612-0.77561-3.2586-1.1249-4.5299-1.1426zm5.5562 1.8014-1.1875 3.9248c-0.035-0.0423-0.07-0.0858-0.1075-0.12557l-0.2207 1.2103-8.8589 29.283c24.599-14.467 10.375-34.292 10.375-34.292zm-72.612 0.28577c-4.9162-0.0404-1.1219 4.1072-1.1219 4.1072l14.4-0.67334c-7.0084-2.5317-11.043-3.4156-13.278-3.4339zm10.24 4.4256-11.057 0.26562s-3.0966 5.4772 11.057-0.26562zm-29.688 1.1989c-2.6381 8.3884-30.461 29.089-3.5424 30.347l0.3581-3.0675c4.8892 1.1387 16.511 6.4252 11.78-8.3282l-11.654 7.2487zm62.938 3.7135 13.782 2.3606zm4.1161 6.7283-55.735 49.296-7.7376-5.8151s-7.938 23.088 25.786 19.38l-13.488-10.137c31.564-3.622 51.175-52.723 51.175-52.723zm8.0424 9.9467s-0.9816 3.9632 0.4113 6.4141l-45.413 46.781c26.721-6.6149 40.363-15.367 43.204-23.207 2.6943-7.4351 2.964-18.507 2.9677-22.626 0.9929 0.87947 2.5964 1.2679 5.145 0.62116zm-76.723 13.788c-2.3772 0.0535-3.8013 1.2082-3.8013 1.2082l11.981 2.5957c-0.378-0.26712-0.7535-0.55412-1.124-0.86765-2.7808-2.3529-5.2065-2.9779-7.0554-2.9363zm8.1794 3.8039c6.1051 4.3148 12.941 2.8034 12.941 2.8034zm-8.4461-0.84751c-6.9717 5.1693 8.511 9.4762 15.96 8.5938zm0.3215 8.6026c-3.9659 13.04 15.653 0.9493 15.653 0.9493z" fill="#d4d4d4"/>
 </g>
</svg>
